<svg xmlns="http://www.w3.org/2000/svg" id="visual" viewBox="0 0 900 600" width="900" height="600">
  <path d="M0 73L75 77C150 81 300 89 450 104C600 119 750 141 825 152L900 163L900 0L825 0C750 0 600 0 450 0C300 0 150 0 75 0L0 0Z" fill="#6198ff"></path>
  <path d="M0 193L75 179C150 165 300 137 450 145C600 153 750 197 825 219L900 241L900 161L825 150C750 139 600 117 450 102C300 87 150 79 75 75L0 71Z" fill="#4385ff"></path>
  <path d="M0 223L75 218C150 213 300 203 450 216C600 229 750 265 825 283L900 301L900 239L825 217C750 195 600 151 450 143C300 135 150 163 75 177L0 191Z" fill="#2071ff"></path>
  <path d="M0 241L75 256C150 271 300 301 450 328C600 355 750 379 825 391L900 403L900 299L825 281C750 263 600 227 450 214C300 201 150 211 75 216L0 221Z" fill="#0061f1"></path>
  <path d="M0 277L75 325C150 373 300 469 450 512C600 555 750 545 825 540L900 535L900 401L825 389C750 377 600 353 450 326C300 299 150 269 75 254L0 239Z" fill="#0056d6"></path>
  <path d="M0 601L75 601C150 601 300 601 450 601C600 601 750 601 825 601L900 601L900 533L825 538C750 543 600 553 450 510C300 467 150 371 75 323L0 275Z" fill="#004cbb"></path>
</svg>